<?xml version="1.0" encoding="UTF-8" standalone="no"?>
<!-- Created with Inkscape (http://www.inkscape.org/) -->

<svg
   xmlns:dc="http://purl.org/dc/elements/1.1/"
   xmlns:cc="http://creativecommons.org/ns#"
   xmlns:rdf="http://www.w3.org/1999/02/22-rdf-syntax-ns#"
   xmlns:svg="http://www.w3.org/2000/svg"
   xmlns="http://www.w3.org/2000/svg"
   xmlns:sodipodi="http://sodipodi.sourceforge.net/DTD/sodipodi-0.dtd"
   xmlns:inkscape="http://www.inkscape.org/namespaces/inkscape"
   version="1.1"
   id="svg42"
   width="128"
   height="128"
   viewBox="0 0 164.32394 128.39755"
   sodipodi:docname="logo.svg"
   inkscape:version="0.92.4 (unknown)">
  <metadata
     id="metadata48">
    <rdf:RDF>
      <cc:Work
         rdf:about="">
        <dc:format>image/svg+xml</dc:format>
        <dc:type
           rdf:resource="http://purl.org/dc/dcmitype/StillImage" />
        <dc:title></dc:title>
      </cc:Work>
    </rdf:RDF>
  </metadata>
  <defs
     id="defs46" />
  <sodipodi:namedview
     pagecolor="#ffffff"
     bordercolor="#666666"
     borderopacity="1"
     objecttolerance="10"
     gridtolerance="10"
     guidetolerance="10"
     inkscape:pageopacity="0"
     inkscape:pageshadow="2"
     inkscape:window-width="2560"
     inkscape:window-height="1379"
     id="namedview44"
     showgrid="false"
     inkscape:zoom="5.1795057"
     inkscape:cx="26.039459"
     inkscape:cy="88.914186"
     inkscape:window-x="0"
     inkscape:window-y="0"
     inkscape:window-maximized="1"
     inkscape:current-layer="g116"
     fit-margin-bottom="-0.3" />
  <g
     id="g116"
     transform="translate(2.6872785,-816.92428)">
    <g
       id="g151"
       inkscape:export-xdpi="60.48"
       inkscape:export-ydpi="60.48"
       transform="matrix(0.16910171,0,0,0.169101,15.881292,803.42763)"
       style="stroke-width:5.91361475">
      <path
         inkscape:connector-curvature="0"
         id="path138"
         d="m 152.90073,710.39309 v -92.97121 h 225.02841 225.02838 v 92.97121 92.9712 H 377.92914 152.90073 Z"
         style="fill:#fdfdfd;stroke-width:1.89554107" />
      <path
         inkscape:connector-curvature="0"
         id="path136"
         d="M 122.32681,871.74939 C 75.851813,831.34866 29.013466,791.05106 18.241598,782.19914 L -1.343617,766.10476 -2.008402,637.05495 C -3.328326,380.82775 -2.905853,332.11844 0.890391,302.83675 11.377497,221.94622 47.755656,146.90696 104.80796,88.480164 149.85168,42.35126 200.22803,10.950259 260.32681,-8.459125 c 38.24725,-12.352259 72.45223,-17.606989 115,-17.666843 27.89948,-0.03925 40.48015,0.933652 64.72783,5.005583 102.20393,17.163186 194.20778,77.222781 251.48808,164.170005 32.50085,49.33386 51.14175,99.26716 60.0244,160.78713 2.15584,14.93102 2.16831,16.02798 2.71274,238.54732 l 0.54695,223.54732 -103.34186,89.70268 -103.34187,89.70268 -170.65813,-0.0658 -170.65814,-0.0658 z m 429.74448,-125.65704 33.25552,-33.24441 v -35.25559 -35.2556 h -208 -208 v 35.24448 35.24449 l 33.2444,33.25551 33.24441,33.25552 H 377.3157 518.81578 Z"
         style="fill:#fdf0ca;stroke-width:5.91361475" />
      <path
         inkscape:connector-curvature="0"
         id="path134"
         d="M 122.32681,871.74939 C 75.851813,831.34866 29.013466,791.05106 18.241598,782.19914 L -1.343617,766.10476 -2.008402,637.05495 C -3.328326,380.82775 -2.905853,332.11844 0.890391,302.83675 11.377497,221.94622 47.755656,146.90696 104.80796,88.480164 149.85168,42.35126 200.22803,10.950259 260.32681,-8.459125 c 38.24725,-12.352259 72.45223,-17.606989 115,-17.666843 27.89948,-0.03925 40.48015,0.933652 64.72783,5.005583 102.20393,17.163186 194.20778,77.222781 251.48808,164.170005 32.50085,49.33386 51.14175,99.26716 60.0244,160.78713 2.15584,14.93102 2.16831,16.02798 2.71274,238.54732 l 0.54695,223.54732 -103.34186,89.70268 -103.34187,89.70268 -170.65813,-0.0658 -170.65814,-0.0658 z m 429.74448,-125.65704 33.25552,-33.24441 v -35.25559 -35.2556 h -208 -208 v 35.24448 35.24449 l 33.2444,33.25551 33.24441,33.25552 H 377.3157 518.81578 Z M 352.9423,263.377 c 62.76117,-15.04736 103.2651,-62.55812 93.9498,-110.20228 -5.0209,-25.68 -20.21617,-46.58947 -46.06529,-63.388206 -9.58001,-6.22582 -13.76994,-8.38909 -25.2713,-13.04764 -8.48022,-3.43485 -31.11656,-9.847595 -31.92109,-9.043061 -0.21983,0.219826 2.65853,2.577761 6.39635,5.239851 19.69851,14.02937 37.38276,36.101176 45.26605,56.496826 5.25668,13.60009 6.53252,20.93726 6.50411,37.40426 -0.0284,16.48494 -1.65429,24.86551 -7.5902,39.12419 -7.93435,19.05918 -23.24398,38.18161 -41.57885,51.9339 -9.87325,7.40556 -9.91791,7.44348 -8.75507,7.4349 0.5225,-0.004 4.60197,-0.88258 9.06549,-1.95274 z"
         style="fill:#e8e2ec;stroke-width:5.91361475" />
      <path
         inkscape:connector-curvature="0"
         id="path132"
         d="M 126.6582,875.16301 C 82.200937,836.56746 35.127979,796.04601 22.051626,785.11535 L -1.723562,765.24143 -1.392883,540.03909 C -1.063008,315.3839 -1.056988,314.80368 1.085166,301.22514 10.475749,241.70077 27.195243,196.02527 56.683839,149.33675 135.843,24.006114 282.64791,-43.686324 429.57485,-22.605056 c 107.40677,15.410864 202.5365,75.793585 262.22011,166.441806 36.29559,55.1262 55.86023,112.69037 61.51741,181 0.61761,7.45747 0.99771,93.25605 1.00412,226.65421 l 0.0103,214.6542 -78.71608,68.3458 c -43.29385,37.59018 -89.75635,77.90813 -103.25,89.59543 l -24.5339,21.24964 -170.16861,3.6e-4 -170.16862,3.6e-4 z m 173.66861,6.17374 13.47387,-54 h 63.52613 63.52613 l 13.47387,54 13.47387,54 38.51306,-0.0187 38.51307,-0.0187 20.7705,-18.2313 20.7705,-18.23129 57.95785,-88 57.95786,-88 0.0216,-64.25 0.0217,-64.25001 -113.25,2.6e-4 c -62.2875,1.4e-4 -208.7625,0.29979 -325.5,0.66588 l -212.249997,0.66563 v 65.71032 65.71033 l 60.249997,87.27631 60.25,87.27632 19.4186,16.84748 19.41861,16.84747 h 38.09446 38.09446 z M 199.0592,748.56921 l -34.75689,-34.76754 0.26225,-37.98246 0.26225,-37.98246 h 212.5 212.5 l 0.26225,37.98246 0.26225,37.98246 -34.75689,34.76754 -34.7569,34.76754 H 377.32681 233.8161 Z m 353.01209,-2.47686 33.25552,-33.24441 v -35.25559 -35.2556 h -208 -208 v 35.24448 35.24449 l 33.2444,33.25551 33.24441,33.25552 H 377.3157 518.81578 Z M 352.9423,263.377 c 62.76117,-15.04736 103.2651,-62.55812 93.9498,-110.20228 -5.0209,-25.68 -20.21617,-46.58947 -46.06529,-63.388206 -9.58001,-6.22582 -13.76994,-8.38909 -25.2713,-13.04764 -8.48022,-3.43485 -31.11656,-9.847595 -31.92109,-9.043061 -0.21983,0.219826 2.65853,2.577761 6.39635,5.239851 19.69851,14.02937 37.38276,36.101176 45.26605,56.496826 5.25668,13.60009 6.53252,20.93726 6.50411,37.40426 -0.0284,16.48494 -1.65429,24.86551 -7.5902,39.12419 -7.93435,19.05918 -23.24398,38.18161 -41.57885,51.9339 -9.87325,7.40556 -9.91791,7.44348 -8.75507,7.4349 0.5225,-0.004 4.60197,-0.88258 9.06549,-1.95274 z"
         style="fill:#abb7c8;stroke-width:5.91361475" />
      <path
         inkscape:connector-curvature="0"
         id="path130"
         d="M 132.28419,879.69756 C 60.957752,817.77646 31.677774,792.64492 9.733036,774.50969 L -0.343216,766.18262 -1.008202,637.09389 C -1.965593,451.24262 -1.825084,335.8503 -0.624326,321.83675 9.375702,205.13059 69.686123,102.22945 165.82681,37.839196 c 67.87666,-45.460415 146.55212,-67.285262 228.5,-63.386693 27.70908,1.318225 47.1188,4.173968 74,10.88758 65.18681,16.280485 123.15717,48.824705 171.84969,96.475401 68.15514,66.696906 107.55526,153.390286 113.11113,248.882196 0.65878,11.32272 1.03766,94.23578 1.03502,226.5 l -0.004,208.63907 -73.1264,63.5 c -40.21953,34.925 -86.45515,75.07848 -102.74585,89.22996 l -29.61944,25.72996 -171.04262,0.02 -171.04262,0.02 z m 155.95627,51.88919 c 0.54491,-2.0625 6.20877,-24.675 12.58635,-50.25 6.37758,-25.575 12.04144,-48.1875 12.58635,-50.25 l 0.99074,-3.75 h 62.92291 62.92291 l 0.99074,3.75 c 0.54491,2.0625 6.20877,24.675 12.58635,50.25 6.37758,25.575 12.04144,48.1875 12.58635,50.25 l 0.99074,3.75 h 38.93378 38.93378 l 20.2475,-17.75 20.24749,-17.75 58.28018,-88.41784 58.28018,-88.41784 v -64.33368 -64.33367 l -325.75,0.25151 -325.749997,0.25152 -0.257147,65.62184 -0.257147,65.62183 60.233221,87.25806 c 33.12827,47.99194 61.81899,88.74804 63.75715,90.56913 1.93815,1.82108 10.72392,9.61083 19.52392,17.31054 l 16,13.99948 38.71146,0.0596 38.71145,0.0596 0.99074,-3.75 z M 199.07145,748.58147 164.32681,713.82619 v -37.04472 c 0,-27.47923 0.30986,-37.35458 1.2,-38.24472 1.74656,-1.74656 421.85344,-1.74656 423.6,0 0.89015,0.89015 1.2,10.76786 1.2,38.25536 v 37.05535 l -34.75528,34.74465 -34.75528,34.74464 H 377.31617 233.8161 Z m 352.99984,-2.48912 33.25552,-33.24441 v -35.25559 -35.2556 h -208 -208 v 35.24448 35.24449 l 33.2444,33.25551 33.24441,33.25552 H 377.3157 518.81578 Z M 320.82015,490.08675 c 6.38016,-27.01222 19.43913,-85.15087 19.18375,-85.40624 -1.71506,-1.71507 -219.04996,-103.34649 -219.62116,-102.70054 -0.96199,1.08788 -43.572695,187.17825 -42.98908,187.74283 0.385161,0.37259 142.2281,1.98081 215.1641,2.43954 l 27.73095,0.17441 z m -143.3473,-22.85203 c -38.69468,-0.42491 -70.45038,-0.91328 -70.56823,-1.08527 -0.26771,-0.39071 29.52749,-130.17077 30.0053,-130.69517 0.78796,-0.86478 175.41689,82.38085 175.41689,83.62125 0,1.23687 -9.48412,43.67621 -10.61756,47.51122 -0.59439,2.01113 -0.25942,2.00938 -124.2364,0.64797 z m 500.86672,23.35203 c 0.007,-0.4125 -9.32688,-42.96151 -20.742,-94.55335 -17.18606,-77.67422 -21.01927,-93.73417 -22.29307,-93.40107 -0.84606,0.22125 -50.46216,23.04631 -110.25799,50.72234 -69.89044,32.34824 -108.7197,50.82901 -108.7197,51.7451 0,1.37996 17.66627,82.46805 18.51571,84.98698 0.33412,0.99083 25.61928,1.25 121.95291,1.25 66.84226,0 121.53712,-0.3375 121.54414,-0.75 z M 453.96085,465.98894 C 449.9728,449.906 443.43796,417.8477 444.0396,417.31773 c 0.98083,-0.86398 172.19479,-80.09649 174.36916,-80.69263 1.3306,-0.36481 3.87867,9.9452 16.03698,64.88896 7.95026,35.92748 14.21338,65.39843 13.91805,65.491 -0.29534,0.0926 -44.03674,0.38606 -97.20312,0.65219 l -96.66614,0.48389 z M 363.32681,260.65186 c 22.82788,-6.86875 41.92584,-17.97284 57.08661,-33.19174 11.26683,-11.31004 17.00107,-19.45552 21.54862,-30.60979 13.02139,-31.93896 5.96193,-63.52095 -20.13523,-90.07931 -11.21577,-11.413976 -21.88486,-18.885426 -37.74074,-26.429416 -10.10475,-4.80769 -28.9991,-11.07753 -37.71488,-12.515179 l -4.45562,-0.734946 10.05942,7.577655 c 36.24048,27.299576 54.64719,66.640296 49.26957,105.304016 -2.09889,15.09041 -8.70637,31.7556 -18.33026,46.232 -7.94009,11.9436 -18.18211,22.11191 -37.17095,36.90346 l -2.91654,2.27187 4.5,-0.63417 c 2.475,-0.3488 9.675,-2.1913 16,-4.09445 z"
         style="fill:#a8cf8d;stroke-width:5.91361475" />
      <path
         inkscape:connector-curvature="0"
         id="path128"
         d="M 132.28419,879.69756 C 60.957752,817.77646 31.677774,792.64492 9.733036,774.50969 L -0.343216,766.18262 -1.008202,637.09389 C -1.965593,451.24262 -1.825084,335.8503 -0.624326,321.83675 9.375702,205.13059 69.686123,102.22945 165.82681,37.839196 c 67.87666,-45.460415 146.55212,-67.285262 228.5,-63.386693 27.70908,1.318225 47.1188,4.173968 74,10.88758 65.18681,16.280485 123.15717,48.824705 171.84969,96.475401 68.15514,66.696906 107.55526,153.390286 113.11113,248.882196 0.65878,11.32272 1.03766,94.23578 1.03502,226.5 l -0.004,208.63907 -73.1264,63.5 c -40.21953,34.925 -86.45515,75.07848 -102.74585,89.22996 l -29.61944,25.72996 -171.04262,0.02 -171.04262,0.02 z m 155.95627,51.88919 c 0.54491,-2.0625 6.20877,-24.675 12.58635,-50.25 6.37758,-25.575 12.04144,-48.1875 12.58635,-50.25 l 0.99074,-3.75 h 62.92291 62.92291 l 0.99074,3.75 c 0.54491,2.0625 6.20877,24.675 12.58635,50.25 6.37758,25.575 12.04144,48.1875 12.58635,50.25 l 0.99074,3.75 h 38.93378 38.93378 l 20.2475,-17.75 20.24749,-17.75 58.28018,-88.41784 58.28018,-88.41784 v -64.33368 -64.33367 l -325.75,0.25151 -325.749997,0.25152 -0.257147,65.62184 -0.257147,65.62183 60.233221,87.25806 c 33.12827,47.99194 61.81899,88.74804 63.75715,90.56913 1.93815,1.82108 10.72392,9.61083 19.52392,17.31054 l 16,13.99948 38.71146,0.0596 38.71145,0.0596 0.99074,-3.75 z m -88.68119,-182.51747 -34.25667,-34.26746 0.26211,-38.48254 0.2621,-38.48253 210.89472,-0.25234 c 155.05538,-0.18552 211.25357,0.0455 212.25,0.87245 1.09585,0.90947 1.35528,8.23293 1.35528,38.25769 v 37.13291 l -34.75528,34.74465 -34.75528,34.74464 H 377.31609 233.81594 Z m 352.51202,-2.97693 33.25552,-33.24441 v -35.25559 -35.2556 h -208 -208 v 35.24448 35.24449 l 33.2444,33.25551 33.24441,33.25552 H 377.3157 518.81578 Z M 320.82015,490.08675 c 6.38016,-27.01222 19.43913,-85.15087 19.18375,-85.40624 -1.71506,-1.71507 -219.04996,-103.34649 -219.62116,-102.70054 -0.96199,1.08788 -43.572695,187.17825 -42.98908,187.74283 0.385161,0.37259 142.2281,1.98081 215.1641,2.43954 l 27.73095,0.17441 z m 357.51942,0.5 c 0.007,-0.4125 -9.32688,-42.96151 -20.742,-94.55335 -17.18606,-77.67422 -21.01927,-93.73417 -22.29307,-93.40107 -0.84606,0.22125 -50.46216,23.04631 -110.25799,50.72234 -69.89044,32.34824 -108.7197,50.82901 -108.7197,51.7451 0,1.37996 17.66627,82.46805 18.51571,84.98698 0.33412,0.99083 25.61928,1.25 121.95291,1.25 66.84226,0 121.53712,-0.3375 121.54414,-0.75 z M 356.32681,262.78033 c 16.65017,-4.18148 31.05779,-10.48444 45.5,-19.90511 10.71532,-6.9896 15.71236,-11.27372 23.77553,-20.38348 23.23677,-26.25289 28.93346,-56.94122 16.1933,-87.23405 -10.72971,-25.51246 -37.63091,-48.466476 -71.32893,-60.862906 -8.21299,-3.0213 -26.89811,-7.633155 -27.69548,-6.835787 -0.26679,0.266794 1.43657,1.741287 3.78525,3.276647 8.07069,5.27591 21.06749,16.973 27.98078,25.18267 12.3716,14.691486 20.6612,30.615706 24.99312,48.011456 3.29606,13.23605 3.02838,33.12383 -0.62999,46.80698 -3.46578,12.96282 -7.41061,21.67414 -15.39651,34 -7.38457,11.39774 -22.53153,27.09517 -33.67806,34.90197 -11.1153,7.78495 -11.5593,7.57721 6.50099,3.04161 z"
         style="fill:#6e8bbc;stroke-width:5.91361475" />
      <path
         inkscape:connector-curvature="0"
         id="path126"
         d="M 149.82681,894.68618 C 64.430773,820.43185 23.06948,784.95513 3.102543,768.83675 l -3.716304,-3 -0.643914,-213.5 C -1.96241,318.67076 -2.022662,321.79755 3.836634,287.9649 19.746249,196.09985 67.865381,114.76878 140.82681,56.423761 c 48.17131,-38.521117 105.81296,-64.906631 166,-75.98663 26.05627,-4.796772 34.70624,-5.503106 68,-5.552705 32.8185,-0.04889 41.48919,0.56446 65,4.597994 102.87805,17.649849 193.39257,76.688118 251.21325,163.85433 32.01599,48.26495 52.01872,102.10362 59.77039,160.87598 3.06811,23.26205 3.49722,55.29058 3.45832,258.12402 l -0.039,203.5 -19.1664,16.5 c -10.54152,9.075 -46.85718,40.57778 -80.70146,70.00617 -33.84428,29.42839 -71.54171,62.16589 -83.77206,72.75 l -22.23703,19.24383 -170.76301,-0.0437 -170.763,-0.0437 z m 137.23089,40.40057 c 0.53667,-0.6875 6.94711,-25.2125 14.2454,-54.5 l 13.26963,-53.25 h 62.75408 62.75408 l 13.26963,53.25 c 7.29829,29.2875 13.70873,53.8125 14.2454,54.5 0.75003,0.96081 9.73475,1.25 38.83521,1.25 h 37.85944 l 11.51178,-9.93654 c 6.33148,-5.4651 15.57031,-13.4526 20.53074,-17.75 l 9.01895,-7.81346 58.48739,-88.68873 58.48738,-88.68873 v -64.56127 -64.56127 h -326 -325.999997 v 66.11351 66.11351 l 60.584597,87.75584 60.5846,87.75584 16.51566,14.38065 c 9.08361,7.90936 18.1257,15.61815 20.09354,17.13065 l 3.57788,2.75 h 37.19941 c 28.57246,0 37.42571,-0.28989 38.1752,-1.25 z m -87.49843,-186.01747 -34.25667,-34.26746 0.26211,-38.48254 0.2621,-38.48253 210.89472,-0.25234 c 155.05538,-0.18552 211.25357,0.0455 212.25,0.87245 1.09585,0.90947 1.35528,8.23293 1.35528,38.25769 v 37.13291 l -34.75528,34.74465 -34.75528,34.74464 H 377.31609 233.81594 Z m 352.51202,-2.97693 33.25552,-33.24441 v -35.25559 -35.2556 h -208 -208 v 35.24448 35.24449 l 33.2444,33.25551 33.24441,33.25552 H 377.3157 518.81578 Z M 330.80407,448.63291 340.95251,404.42907 230.57492,352.28098 c -60.70767,-28.68145 -110.50327,-51.98972 -110.6569,-51.79616 -0.60442,0.76154 -43.524787,189.25168 -43.173716,189.60275 0.329698,0.3297 238.890006,3.14353 242.496916,2.86026 1.02768,-0.0807 4.18922,-12.19739 11.56285,-44.31492 z m 347.88401,42.65276 c 0.42864,-0.45195 -41.10241,-189.0234 -41.77977,-189.70075 -0.19973,-0.19973 -50.17009,22.68793 -111.04525,50.86147 -85.85132,39.73271 -110.59546,51.57972 -110.29589,52.80748 0.21242,0.87059 4.63273,20.87354 9.82293,44.451 l 9.43671,42.86813 121.71775,-0.41921 c 66.94476,-0.23056 121.90935,-0.62122 122.14352,-0.86812 z M 348.82681,264.865 c 12.21782,-2.85387 22.34402,-5.9317 28,-8.51052 21.08701,-9.61452 32.28501,-16.86347 43.36762,-28.07374 9.03898,-9.1431 9.63179,-9.84432 14.41663,-17.05298 9.07929,-13.67853 13.77612,-28.85235 13.79006,-44.55091 0.005,-5.58794 -0.28422,-11.43794 -0.64264,-13 -7.33382,-31.96263 -26.43392,-54.796846 -60.43167,-72.246246 -11.02436,-5.65827 -30.12733,-11.97691 -41.5,-13.726849 -1.65,-0.25389 -3.5625,-0.651205 -4.25,-0.882924 -2.5661,-0.864892 -1.08895,0.462508 4.18736,3.762863 9.4643,5.91995 22.21374,17.54922 30.81312,28.10586 10.20147,12.523376 19.69159,31.284766 22.584,44.647196 0.65479,3.025 1.44779,6.625 1.76223,8 0.78212,3.42008 0.73743,25.68268 -0.0602,30 -1.93192,10.45663 -4.35554,18.62586 -7.56523,25.5 -1.02723,2.2 -2.36032,5.125 -2.96242,6.5 -1.75705,4.01255 -5.28874,9.55038 -11.4793,18 -7.49123,10.22494 -24.31633,25.74447 -35.52954,32.7726 -4.05211,2.53975 -2.8469,2.70534 5.5,0.75565 z"
         style="fill:#b3886b;stroke-width:5.91361475" />
      <path
         inkscape:connector-curvature="0"
         id="path124"
         d="M 149.82681,894.68618 C 64.430773,820.43185 23.06948,784.95513 3.102543,768.83675 l -3.716304,-3 -0.643914,-213.5 C -1.96241,318.67076 -2.022662,321.79755 3.836634,287.9649 19.746249,196.09985 67.865381,114.76878 140.82681,56.423761 c 48.17131,-38.521117 105.81296,-64.906631 166,-75.98663 26.05627,-4.796772 34.70624,-5.503106 68,-5.552705 32.8185,-0.04889 41.48919,0.56446 65,4.597994 102.87805,17.649849 193.39257,76.688118 251.21325,163.85433 32.01599,48.26495 52.01872,102.10362 59.77039,160.87598 3.06811,23.26205 3.49722,55.29058 3.45832,258.12402 l -0.039,203.5 -19.1664,16.5 c -10.54152,9.075 -46.85718,40.57778 -80.70146,70.00617 -33.84428,29.42839 -71.54171,62.16589 -83.77206,72.75 l -22.23703,19.24383 -170.76301,-0.0437 -170.763,-0.0437 z m 137.23089,40.40057 c 0.53667,-0.6875 6.94711,-25.2125 14.2454,-54.5 l 13.26963,-53.25 h 62.75408 62.75408 l 13.26963,53.25 c 7.29829,29.2875 13.70873,53.8125 14.2454,54.5 0.75003,0.96081 9.73475,1.25 38.83521,1.25 h 37.85944 l 11.51178,-9.93654 c 6.33148,-5.4651 15.57031,-13.4526 20.53074,-17.75 l 9.01895,-7.81346 58.48739,-88.68873 58.48738,-88.68873 v -64.56127 -64.56127 h -326 -325.999997 v 66.11351 66.11351 l 60.584597,87.75584 60.5846,87.75584 16.51566,14.38065 c 9.08361,7.90936 18.1257,15.61815 20.09354,17.13065 l 3.57788,2.75 h 37.19941 c 28.57246,0 37.42571,-0.28989 38.1752,-1.25 z M 200.07145,748.58147 165.32681,713.82619 v -37.74472 -37.74472 h 212 212 v 38.25544 38.25543 l -34.25536,34.24457 -34.25536,34.24456 h -143 -142.99999 z m 353.03839,-2.54233 33.24301,-33.29761 -0.26302,-35.45239 -0.26302,-35.45239 h -208.5 -208.5 l -0.26302,35.45239 -0.26302,35.45239 33.24301,33.29761 33.24301,33.29761 H 377.32681 519.86683 Z M 330.80407,448.63291 340.95251,404.42907 230.57492,352.28098 c -60.70767,-28.68145 -110.50327,-51.98972 -110.6569,-51.79616 -0.60442,0.76154 -43.524787,189.25168 -43.173716,189.60275 0.329698,0.3297 238.890006,3.14353 242.496916,2.86026 1.02768,-0.0807 4.18922,-12.19739 11.56285,-44.31492 z m 347.88401,42.65276 c 0.42864,-0.45195 -41.10241,-189.0234 -41.77977,-189.70075 -0.19973,-0.19973 -50.17009,22.68793 -111.04525,50.86147 -85.85132,39.73271 -110.59546,51.57972 -110.29589,52.80748 0.21242,0.87059 4.63273,20.87354 9.82293,44.451 l 9.43671,42.86813 121.71775,-0.41921 c 66.94476,-0.23056 121.90935,-0.62122 122.14352,-0.86812 z M 349.10155,264.88413 c 34.64264,-7.2873 68.42365,-27.90381 84.14943,-51.35629 13.82873,-20.62334 18.53285,-44.16991 13.12373,-65.69109 -8.2569,-32.8516 -37.99814,-60.929076 -78.92663,-74.511356 -10.57711,-3.51006 -26.11609,-7.327153 -26.8481,-6.595141 -0.16343,0.163423 2.74576,2.345431 6.46485,4.848901 13.68811,9.21404 27.79943,23.51425 36.90928,37.403316 25.4568,38.81202 23.3964,84.65612 -5.52152,122.85428 -6.69551,8.84421 -19.57461,21.14386 -29.58089,28.25 -4.84041,3.4375 -8.32259,6.25 -7.73819,6.25 0.5844,0 4.17002,-0.65368 7.96804,-1.45262 z"
         style="fill:#4370c2;stroke-width:5.91361475" />
      <path
         inkscape:connector-curvature="0"
         id="path122"
         d="M 149.82681,894.68618 C 64.430773,820.43185 23.06948,784.95513 3.102543,768.83675 l -3.716304,-3 -0.643914,-213.5 C -1.96241,318.67076 -2.022662,321.79755 3.836634,287.9649 19.746249,196.09985 67.865381,114.76878 140.82681,56.423761 c 48.17131,-38.521117 105.81296,-64.906631 166,-75.98663 26.05627,-4.796772 34.70624,-5.503106 68,-5.552705 32.8185,-0.04889 41.48919,0.56446 65,4.597994 102.87805,17.649849 193.39257,76.688118 251.21325,163.85433 32.01599,48.26495 52.01872,102.10362 59.77039,160.87598 3.06811,23.26205 3.49722,55.29058 3.45832,258.12402 l -0.039,203.5 -19.1664,16.5 c -10.54152,9.075 -46.85718,40.57778 -80.70146,70.00617 -33.84428,29.42839 -71.54171,62.16589 -83.77206,72.75 l -22.23703,19.24383 -170.76301,-0.0437 -170.763,-0.0437 z m 137.23089,40.40057 c 0.53667,-0.6875 6.94711,-25.2125 14.2454,-54.5 l 13.26963,-53.25 h 62.75408 62.75408 l 13.26963,53.25 c 7.29829,29.2875 13.70873,53.8125 14.2454,54.5 0.75003,0.96081 9.73475,1.25 38.83521,1.25 h 37.85944 l 11.51178,-9.93654 c 6.33148,-5.4651 15.57031,-13.4526 20.53074,-17.75 l 9.01895,-7.81346 58.48739,-88.68873 58.48738,-88.68873 v -64.56127 -64.56127 h -326 -325.999997 v 66.11351 66.11351 l 60.584597,87.75584 60.5846,87.75584 16.51566,14.38065 c 9.08361,7.90936 18.1257,15.61815 20.09354,17.13065 l 3.57788,2.75 h 37.19941 c 28.57246,0 37.42571,-0.28989 38.1752,-1.25 z M 200.07145,748.58147 165.32681,713.82619 v -37.74472 -37.74472 h 212 212 v 38.25544 38.25543 l -34.25536,34.24457 -34.25536,34.24456 h -143 -142.99999 z m 353.03839,-2.54233 33.24301,-33.29761 -0.26302,-35.45239 -0.26302,-35.45239 h -208.5 -208.5 l -0.26302,35.45239 -0.26302,35.45239 33.24301,33.29761 33.24301,33.29761 h 142.54002 142.54002 z m -106.4517,143.54761 c -6.28486,-25.1625 -11.87283,-47.4375 -12.41771,-49.5 l -0.99071,-3.75 H 377.32681 321.4039 l -0.99071,3.75 c -0.54488,2.0625 -6.13285,24.3375 -12.41771,49.5 l -11.427,45.75 h 80.75833 80.75833 z M 702.32681,514.67566 v -70.66108 l 14.75,-15.08892 c 8.1125,-8.2989 17.7875,-18.51478 21.5,-22.70196 l 6.75,-7.61305 -0.0192,-23.88695 c -0.0225,-27.99662 -1.37463,-55.24568 -3.54235,-71.38695 C 723.04435,163.93677 627.98909,48.239933 494.32681,2.166172 474.29725,-4.738073 443.60562,-11.5576 418.41887,-14.700189 394.96213,-17.626923 353.82768,-17.360641 329.00598,-14.121378 240.23974,-2.537268 158.68088,40.701165 99.904583,107.33675 56.445659,156.60679 27.213387,215.40895 14.35146,279.43107 9.238977,304.87921 8.141282,317.85159 7.610073,359.09964 l -0.505643,39.2629 7.861192,8.72925 c 4.323655,4.80109 14.060434,15.08693 21.637287,22.85742 l 13.776097,14.12816 -0.03876,70.62969 -0.03876,70.62969 H 376.31415 702.32681 Z m -416.5,-235.88242 c 1.65,-0.77859 9.525,-4.15867 17.5,-7.5113 24.0557,-10.11283 37.69902,-18.41102 51.9247,-31.58182 34.7949,-32.21474 44.1957,-75.24968 24.87299,-113.86337 C 367.61796,100.8442 345.89694,81.151644 315.03577,66.826469 304.3953,61.887363 304.29231,61.806326 304.8812,58.836754 c 1.34189,-6.766713 0.96197,-6.500227 9.263,-6.497183 8.96488,0.0033 22.36418,1.449545 33.68261,3.635547 32.94117,6.36214 59.84703,19.922416 81.07633,40.861636 20.33325,20.055416 29.98892,40.588876 31.16199,66.268166 0.69528,15.22021 -1.23342,25.06581 -7.95887,40.62832 -4.92379,11.39354 -11.45973,20.52845 -22.65863,31.6687 -12.38701,12.32213 -20.45168,18.19053 -35.62082,25.92016 -27.28079,13.90128 -51.75229,19.06549 -89.80122,18.9507 -19.05658,-0.0575 -20.89562,-0.20701 -18.19878,-1.47956 z m 63.27474,-13.90911 c 34.64264,-7.2873 68.42365,-27.90381 84.14943,-51.35629 13.82873,-20.62334 18.53285,-44.16991 13.12373,-65.69109 -8.2569,-32.8516 -37.99814,-60.929076 -78.92663,-74.511356 -10.57711,-3.51006 -26.11609,-7.327153 -26.8481,-6.595141 -0.16343,0.163423 2.74576,2.345431 6.46485,4.848901 13.68811,9.21404 27.79943,23.51425 36.90928,37.403316 25.4568,38.81202 23.3964,84.65612 -5.52152,122.85428 -6.69551,8.84421 -19.57461,21.14386 -29.58089,28.25 -4.84041,3.4375 -8.32259,6.25 -7.73819,6.25 0.5844,0 4.17002,-0.65368 7.96804,-1.45262 z"
         style="fill:#435369;stroke-width:5.91361475" />
      <path
         inkscape:connector-curvature="0"
         id="path120"
         d="M 173.10757,914.56639 C 75.202187,829.54265 46.870614,805.10025 26.326813,787.93475 13.951813,777.59474 2.889084,768.34818 1.74297,767.38683 L -0.340873,765.63892 -1.0066,637.23784 C -2.296699,388.41169 -1.890253,331.19277 1.34746,305.83675 12.430604,219.03952 51.222244,141.17584 113.44596,80.829444 186.78314,9.704888 283.20173,-27.951182 385.32681,-25.353023 c 30.64062,0.779526 51.0721,3.426377 80,10.363812 116.50046,27.938925 214.12241,111.815425 259.97917,223.373351 12.41002,30.19047 20.94026,62.70402 25.56762,97.45261 2.56399,19.25406 3.53746,123.62849 2.81429,301.74599 l -0.64453,158.74598 -67.06598,58.25402 c -36.88629,32.0397 -83.01429,72.09151 -102.50667,89.00401 l -35.4407,30.75 H 377.70917 207.38833 Z m 128.15325,-32.97964 13.54745,-54.25 h 62.51854 62.51854 l 13.54746,54.25 13.54746,54.25 38.94327,0.24839 38.94327,0.24839 20.84092,-18.24839 20.84092,-18.24839 57.90908,-87.9888 57.90908,-87.9888 v -64.7612 -64.7612 h -326 -325.999997 v 66.33395 66.33395 l 60.343497,87.41605 60.3435,87.41605 19.82517,17.26159 19.82516,17.26158 38.52461,-0.26158 38.52461,-0.26159 z M 200.07145,748.58147 165.32681,713.82619 v -37.74472 -37.74472 h 212 212 v 38.25544 38.25543 l -34.25536,34.24457 -34.25536,34.24456 h -143 -142.99999 z m 353.03839,-2.54233 33.24301,-33.29761 -0.26302,-35.45239 -0.26302,-35.45239 h -208.5 -208.5 l -0.26302,35.45239 -0.26302,35.45239 33.24301,33.29761 33.24301,33.29761 h 142.54002 142.54002 z m -95.44229,186.54761 c -0.38356,-1.5125 -5.93272,-23.675 -12.33148,-49.25 l -11.6341,-46.5 h -56.37516 -56.37516 l -11.6341,46.5 c -6.39876,25.575 -11.94792,47.7375 -12.33148,49.25 l -0.69736,2.75 h 81.0381 81.0381 z m 244.65975,-417.5 4.8e-4,-70.25 15.74952,-16.52762 c 8.66223,-9.09019 18.3875,-19.40788 21.61172,-22.9282 l 5.86221,-6.40058 -0.51173,-37.5718 C 744.51779,323.10348 743.84954,313.40778 740.21,291.33675 723.55089,190.31195 665.03774,100.23132 579.32681,43.658058 497.44167,-10.389997 397.96501,-29.459593 301.25386,-9.648302 201.41985,10.802706 113.58005,72.926544 60.276208,160.78078 38.686164,196.36502 22.451731,237.86724 14.291811,278.33675 8.98329,304.66462 8.143692,314.66863 7.616441,357.8754 l -0.500794,41.03865 13.000604,13.96135 c 7.150332,7.67874 16.872844,17.77642 21.605583,22.43927 l 8.604979,8.47792 v 70.77208 70.77208 h 325.999997 326 z"
         style="fill:#853e0f;stroke-width:5.91361475" />
      <path
         inkscape:connector-curvature="0"
         id="path118"
         d="M 173.10757,914.56639 C 75.202187,829.54265 46.870614,805.10025 26.326813,787.93475 13.951813,777.59474 2.889084,768.34818 1.74297,767.38683 L -0.340873,765.63892 -1.0066,637.23784 C -2.296699,388.41169 -1.890253,331.19277 1.34746,305.83675 12.430604,219.03952 51.222244,141.17584 113.44596,80.829444 186.78314,9.704888 283.20173,-27.951182 385.32681,-25.353023 c 30.64062,0.779526 51.0721,3.426377 80,10.363812 116.50046,27.938925 214.12241,111.815425 259.97917,223.373351 12.41002,30.19047 20.94026,62.70402 25.56762,97.45261 2.56399,19.25406 3.53746,123.62849 2.81429,301.74599 l -0.64453,158.74598 -67.06598,58.25402 c -36.88629,32.0397 -83.01429,72.09151 -102.50667,89.00401 l -35.4407,30.75 H 377.70917 207.38833 Z m 128.15325,-32.97964 13.54745,-54.25 h 62.51854 62.51854 l 13.54746,54.25 13.54746,54.25 38.94327,0.24839 38.94327,0.24839 20.84092,-18.24839 20.84092,-18.24839 57.90908,-87.9888 57.90908,-87.9888 v -64.7612 -64.7612 h -326 -325.999997 v 66.33395 66.33395 l 60.343497,87.41605 60.3435,87.41605 19.82517,17.26159 19.82516,17.26158 38.52461,-0.26158 38.52461,-0.26159 z m 156.40673,51 c -0.38356,-1.5125 -5.93272,-23.675 -12.33148,-49.25 l -11.6341,-46.5 h -56.37516 -56.37516 l -11.6341,46.5 c -6.39876,25.575 -11.94792,47.7375 -12.33148,49.25 l -0.69736,2.75 h 81.0381 81.0381 z m 244.65975,-417.5 4.8e-4,-70.25 15.74952,-16.52762 c 8.66223,-9.09019 18.3875,-19.40788 21.61172,-22.9282 l 5.86221,-6.40058 -0.51173,-37.5718 C 744.51779,323.10348 743.84954,313.40778 740.21,291.33675 723.55089,190.31195 665.03774,100.23132 579.32681,43.658058 497.44167,-10.389997 397.96501,-29.459593 301.25386,-9.648302 201.41985,10.802706 113.58005,72.926544 60.276208,160.78078 38.686164,196.36502 22.451731,237.86724 14.291811,278.33675 8.98329,304.66462 8.143692,314.66863 7.616441,357.8754 l -0.500794,41.03865 13.000604,13.96135 c 7.150332,7.67874 16.872844,17.77642 21.605583,22.43927 l 8.604979,8.47792 v 70.77208 70.77208 h 325.999997 326 z"
         style="fill:#1f3763;stroke-width:5.91361475" />
    </g>
  </g>
</svg>
